# AST/ASF file generated using VICON BodyLanguage
# -----------------------------------------------
:version 1.10
:name VICON
:units
  mass 1.0
  length 0.45
  angle deg
:documentation
   .ast/.asf automatically generated from VICON data using
   VICON BodyBuilder and BodyLanguage model FoxedUp or BRILLIANT.MOD
:root
   order TX TY TZ RX RY RZ
   axis XYZ
   position 0 0 0  
   orientation 0 0 0 
:bonedata
  begin
     id 1 
     name lhipjoint
     direction 0.57768 -0.667037 0.470475 
     length 2.36008 
     axis 0 0 0  XYZ
  end
  begin
     id 2 
     name lfemur
     direction 0.34202 -0.939693 0  
     length 6.97235  
     axis 0 0 20  XYZ
    dof rx ry rz
    limits (-160.0 20.0)
           (-70.0 70.0)
           (-60.0 70.0)
  end
  begin
     id 3 
     name ltibia
     direction 0.34202 -0.939693 0   
     length 6.93428   
     axis 0 0 20   XYZ
    dof rx
    limits (-10.0 170.0)
  end
  begin
     id 4 
     name lfoot
     direction 0.133018 -0.365463 0.921272   
     length 2.18603   
     axis -90 7.62852e-016 20   XYZ
    dof rx rz
    limits (-45.0 90.0)
           (-70.0 20.0)
  end
  begin
     id 5 
     name ltoes
     direction 1.53519e-011 -4.22055e-011 1   
     length 1.07924   
     axis -90 7.62852e-016 20   XYZ
    dof rx
    limits (-90.0 20.0)
  end
  begin
     id 6 
     name rhipjoint
     direction -0.577712 -0.667019 0.470462   
     length 2.36015  
     axis 0 0 0  XYZ 
  end
  begin
     id 7 
     name rfemur
     direction -0.34202 -0.939693 0   
     length 6.71195   
     axis 0 0 -20   XYZ
    dof rx ry rz
    limits (-160.0 20.0)
           (-70.0 70.0)
           (-70.0 60.0)
  end
  begin
     id 8 
     name rtibia
     direction -0.34202 -0.939693 0   
     length 7.04592   
     axis 0 0 -20   XYZ
    dof rx
    limits (-10.0 170.0)
 end
 begin
     id 9 
     name rfoot
     direction -0.113796 -0.312651 0.943027   
     length 2.03846  
     axis -90 -7.62852e-016 -20   XYZ
    dof rx rz
    limits (-45.0 90.0)
           (-20.0 70.0)
  end
  begin
     id 10 
     name rtoes
     direction -1.53586e-011 -4.218e-011 1   
     length 1.01562   
     axis -90 -7.62852e-016 -20   XYZ
    dof rx
    limits (-90.0 20.0)
  end
  begin
     id 11 
     name lowerback
     direction -0.0417299 0.991937 -0.119667   
     length 2.05257   
     axis 0 0 0   XYZ
    dof rx ry rz
    limits (-20.0 45.0)
           (-30.0 30.0)
           (-30.0 30.0)
  end
  begin
     id 12 
     name upperback
     direction -0.00017666 0.999999 0.00105178   
     length 2.05693   
     axis 0 0 0   XYZ
    dof rx ry rz
    limits (-20.0 45.0)
           (-30.0 30.0)
           (-30.0 30.0)
  end
  begin
     id 13 
     name thorax
     direction 0.0185169 0.998203 0.0569866   
     length 2.0932   
     axis 0 0 0   XYZ
    dof rx ry rz
    limits (-20.0 45.0)
           (-30.0 30.0)
           (-30.0 30.0)
  end
  begin
     id 14 
     name lowerneck
     direction -0.0212406 0.982645 0.184277   
     length 1.72509   
     axis 0 0 0   XYZ
    dof rx ry rz
    limits (-20.0 45.0)
           (-30.0 30.0)
           (-30.0 30.0)
  end
  begin
     id 15 
     name upperneck
     direction 0.00528579 0.965323 -0.261004   
     length 1.76294   
     axis 0 0 0   XYZ
    dof rx ry rz
    limits (-20.0 45.0)
           (-30.0 30.0)
           (-30.0 30.0)
  end
  begin
     id 16
     name head
     direction 0.00695421 0.994078 -0.108445  
     length 1.78678  
     axis 0 0 0   XYZ
    dof rx ry rz
    limits (-20.0 45.0)
           (-30.0 30.0)
           (-30.0 30.0)
  end
  begin
     id 17 
     name lclavicle
     direction 0.97277 0.211305 -0.095232  
     length 3.84823  
     axis 0 0 0   XYZ
    dof ry rz
    limits (-20.0 10.0)
           (0.0 20.0)
  end
  begin
     id 18 
     name lhumerus
     direction 1 -4.48957e-011 -1.98313e-027   
     length 4.97185   
     axis 180 -30 -90   XYZ
    dof rx ry rz
    limits (-60.0 90.0)
           (-90.0 90.0)
           (-90.0 90.0)
  end
  begin
     id 19
     name lradius
     direction 1 -4.4898e-011 7.31063e-027   
     length 3.35811   
     axis 180 -30 -90   XYZ
    dof rx
    limits (-10.0 170.0)
  end
  begin
     id 20
     name lwrist
     direction 1 -4.48938e-011 9.95048e-027   
     length 1.67905   
     axis -8.75986e-015 90 90   XYZ
    dof ry
    limits (-180.0 0.0)
 end
  begin
     id 21 
     name lhand
     direction 1 -4.4901e-011 1.9901e-026   
     length 0.622776   
     axis -1.26985e-014 90 90   XYZ
    dof rx rz
    limits (-90.0 90.0)
           (-45.0 45.0)
  end
  begin
     id 22 
     name lfingers
     direction 1 -4.48961e-011 3.98019e-026   
     length 0.502098   
     axis -2.5397e-014 90 90   XYZ
    dof rx
    limits (0.0 90.0)
  end
  begin
     id 23
     name lthumb
     direction 0.707107 -6.34933e-011 0.707107   
     length 0.720915   
     axis -90 45 2.85299e-015   XYZ
    dof rx rz
    limits (-45.0 45.0)
           (-45.0 45.0)
  end
  begin
     id 24 
     name rclavicle
     direction -0.990867 0.133739 -0.0172226   
     length 3.78845  
     axis 0 0 0   XYZ 
    dof ry rz
    limits (-10.0 20.0)
           (-20.0 0.0)
  end
  begin
     id 25 
     name rhumerus
     direction -1 -4.48972e-011 -1.99267e-027  
     length 4.96493   
     axis 180 30 90   XYZ
    dof rx ry rz
    limits (-90.0 60.0)
           (-90.0 90.0)
           (-90.0 90.0)
  end
  begin
     id 26 
     name rradius
     direction -1 -4.48969e-011 8.96093e-027   
     length 3.34929   
     axis 180 30 90   XYZ
    dof rx
    limits (-10.0 170.0)
  end
  begin
     id 27 
     name rwrist
     direction -1 -4.48953e-011 9.95048e-027   
     length 1.67464   
     axis -8.75986e-015 -90 -90   XYZ
    dof ry
    limits (-180.0 0.0)
  end
  begin
     id 28
     name rhand
     direction -1 -4.49001e-011 1.9901e-026   
     length 0.638041   
     axis -1.26985e-014 -90 -90   XYZ
    dof rx rz
    limits (-90.0 90.0)
           (-45.0 45.0)
  end
  begin
     id 29
     name rfingers
     direction -1 -4.48967e-011 3.98019e-026   
     length 0.514405   
     axis -2.5397e-014 -90 -90   XYZ
    dof rx
    limits (0.0 90.0)
  end
  begin
     id 30
     name rthumb
     direction -0.707107 -6.34904e-011 0.707107   
     length 0.738586   
     axis -90 -45 -2.85299e-015   XYZ
    dof rx rz
    limits (-45.0 45.0)
           (-45.0 45.0)
  end
:hierarchy
  begin
    root lhipjoint rhipjoint lowerback
    lhipjoint lfemur
    lfemur ltibia
    ltibia lfoot
    lfoot ltoes
    rhipjoint rfemur
    rfemur rtibia
    rtibia rfoot
    rfoot rtoes
    lowerback upperback
    upperback thorax
    thorax lowerneck lclavicle rclavicle
    lowerneck upperneck
    upperneck head
    lclavicle lhumerus
    lhumerus lradius
    lradius lwrist
    lwrist lhand lthumb
    lhand lfingers
    rclavicle rhumerus
    rhumerus rradius
    rradius rwrist
    rwrist rhand rthumb
    rhand rfingers
  end

#!OML:ASF E:\Mandelcareful walks\Project 1\Capture day 1\Session 1\Subject1.ASF
:FULLY-SPECIFIED
:DEGREES
95
root -4.80629 16.7568 0.302312 102.614 82.6054 101.045
lowerback 9.58821 1.67271 -6.50964
upperback 5.65201 1.92838 -0.105414
thorax 0.330524 0.914946 3.36786
lowerneck -20.0836 -2.28613 -6.08144
upperneck 37.5173 0.284287 0.23055
head 17.1047 -0.310214 1.36535
rclavicle 8.34896e-015 2.8625e-014
rhumerus -21.8609 3.84915 -87.0335
rradius 39.6797
rwrist -17.3737
rhand -8.64646 -33.1597
rfingers 7.12502
rthumb 17.2867 -62.4109
lclavicle 8.34896e-015 2.8625e-014
lhumerus -26.6683 7.23 84.8514
lradius 24.38
lwrist 3.88991
lhand -18.6023 -13.0954
lfingers 7.12502
lthumb 7.68902 16.7448
rfemur -9.56784 -8.65972 5.47952
rtibia 25.9159
rfoot -16.6518 -11.9471
rtoes -2.85052
lfemur -4.4359 4.67074 -20.1402
ltibia 20.1229
lfoot -15.6973 17.6053
ltoes -6.13715
96
root -4.88228 16.7315 0.367085 102.839 82.5614 101.323
lowerback 11.0843 1.53343 -5.94447
upperback 5.98711 1.73135 -0.0319848
thorax -0.103092 0.848497 3.11714
lowerneck -20.447 -2.28758 -6.2005
upperneck 37.2096 0.35585 0.0953943
head 17.0311 -0.329661 1.33156
rclavicle 1.13307e-014 -7.95139e-015
rhumerus -21.2334 4.08389 -87.07
rradius 40.7803
rwrist -18.1769
rhand -8.62145 -33.7964
rfingers 7.12502
rthumb 17.3108 -63.0455
lclavicle 1.13307e-014 -7.95139e-015
lhumerus -26.2544 7.7137 84.436
lradius 24.2235
lwrist 3.43808
lhand -18.6509 -12.2893
lfingers 7.12502
lthumb 7.64216 17.5527
rfemur -10.1867 -8.94169 5.67641
rtibia 26.6293
rfoot -17.1074 -11.5572
rtoes -1.67536
lfemur -6.07191 6.0522 -19.803
ltibia 22.6058
lfoot -15.7732 16.3159
ltoes -5.84013
97
root -4.96104 16.7078 0.429707 103.228 82.7863 101.711
lowerback 12.7084 1.4049 -5.04006
upperback 6.25338 1.59488 0.0759816
thorax -0.675375 0.822098 2.70671
lowerneck -20.8944 -2.26205 -6.15325
upperneck 36.9443 0.432831 -0.0923535
head 16.9997 -0.331117 1.24752
rclavicle 6.55989e-015 -1.03368e-014
rhumerus -20.5104 4.3858 -87.1215
rradius 41.6875
rwrist -18.8975
rhand -8.12824 -34.2526
rfingers 7.12502
rthumb 17.7854 -63.4592
lclavicle 6.55989e-015 -1.03368e-014
lhumerus -26.051 8.03579 84.0483
lradius 24.2709
lwrist 3.48972
lhand -18.8168 -12.0084
lfingers 7.12502
lthumb 7.482 17.8393
rfemur -11.0371 -9.216 6.19636
rtibia 27.5191
rfoot -17.1083 -11.261
rtoes -1.62659
lfemur -7.91458 7.34347 -19.1868
ltibia 25.2869
lfoot -15.7256 15.109
ltoes -5.84988
98
root -5.04216 16.6805 0.484765 103.746 82.9713 102.168
lowerback 14.0975 1.25576 -4.14975
upperback 6.607 1.48239 0.205808
thorax -1.02661 0.800811 2.33399
lowerneck -21.2718 -2.20353 -6.09557
upperneck 36.5316 0.521879 -0.252689
head 16.8723 -0.32082 1.17474
rclavicle -4.37326e-015 1.90833e-014
rhumerus -19.5758 4.89513 -87.1155
rradius 42.3415
rwrist -19.4165
rhand -7.84095 -34.3196
rfingers 7.12502
rthumb 18.0619 -63.501
lclavicle -4.37326e-015 1.90833e-014
lhumerus -25.8256 8.31581 83.8093
lradius 24.469
lwrist 3.83661
lhand -19.3359 -12.1141
lfingers 7.12502
lthumb 6.98088 17.7507
rfemur -11.9845 -9.65906 6.66452
rtibia 28.4955
rfoot -17.0288 -10.8685
rtoes -1.71962
lfemur -9.85427 8.50953 -18.6568
ltibia 28.04
lfoot -15.3776 14.0654
ltoes -6.06493
99
root -5.12864 16.6509 0.534128 99.7985 83.2154 98.1806
lowerback 15.5341 1.25117 -3.31009
upperback 7.02189 1.58267 0.23538
thorax -1.34283 0.886847 1.85251
lowerneck -21.8697 -2.12327 -5.9727
upperneck 36.2114 0.617352 -0.366905
head 16.8469 -0.296495 1.11407
rclavicle -7.15625e-015 2.62396e-014
rhumerus -18.6147 5.61538 -87.1343
rradius 43.1593
rwrist -20.1209
rhand -8.09748 -34.5399
rfingers 7.12502
rthumb 17.815 -63.7439
lclavicle -7.15625e-015 2.62396e-014
lhumerus -25.5481 8.37022 83.5499
lradius 24.7989
lwrist 4.2748
lhand -19.8071 -12.2542
lfingers 7.12502
lthumb 6.52601 17.6253
rfemur -13.1296 -9.9751 7.08885
rtibia 29.5355
rfoot -17.1399 -10.2533
rtoes -2.40498
lfemur -11.716 9.96098 -18.2149
ltibia 30.7838
lfoot -14.9399 13.3553
ltoes -6.35126
100
root -5.20833 16.6208 0.583283 101.588 83.3877 100.193
lowerback 17.1543 0.966743 -2.27221
upperback 7.54249 1.38635 0.248592
thorax -1.61305 0.836341 1.28974
lowerneck -22.5692 -2.03793 -5.75953
upperneck 35.9183 0.664286 -0.425933
head 16.8605 -0.273396 1.05292
rclavicle 1.55052e-014 2.38542e-015
rhumerus -17.7642 6.52562 -87.0974
rradius 44.267
rwrist -21.0185
rhand -8.66789 -34.7844
rfingers 7.12502
rthumb 17.2661 -64.0374
lclavicle 1.55052e-014 2.38542e-015
lhumerus -25.1662 7.80861 83.3753
lradius 25.0697
lwrist 5.31758
lhand -20.2124 -12.4544
lfingers 7.12502
lthumb 6.13476 17.4367
rfemur -13.788 -10.6775 7.51766
rtibia 30.6542
rfoot -17.4934 -9.82954
rtoes -2.62096
lfemur -13.3451 10.7508 -17.6603
ltibia 33.4094
lfoot -14.2903 12.51
ltoes -7.45894
101
root -5.28506 16.5907 0.629489 104.589 83.327 103.405
lowerback 18.6958 0.657508 -1.47705
upperback 8.06668 1.15988 0.287026
thorax -1.83351 0.769423 0.903397
lowerneck -22.9528 -1.97078 -5.65337
upperneck 35.3488 0.631893 -0.364293
head 16.6558 -0.273406 1.04495
rclavicle -5.96354e-015 -1.59028e-015
rhumerus -17.008 7.38606 -86.8619
rradius 45.4633
rwrist -21.7019
rhand -9.24784 -34.0699
rfingers 7.12502
rthumb 16.7079 -63.3708
lclavicle -5.96354e-015 -1.59028e-015
lhumerus -24.7613 6.727 83.4932
lradius 25.2475
lwrist 6.89497
lhand -20.7617 -12.6606
lfingers 7.12502
lthumb 5.60439 17.2453
rfemur -14.4409 -11.512 7.69987
rtibia 31.8765
rfoot -17.7949 -9.30894
rtoes -2.35908
lfemur -14.9064 11.1238 -17.3133
ltibia 35.8721
lfoot -13.5869 11.6396
ltoes -8.0184
102
root -5.3581 16.5596 0.669757 105.86 82.9997 104.773
lowerback 20.182 0.401061 -1.09644
upperback 8.49838 0.947334 0.297873
thorax -2.11998 0.70142 0.725959
lowerneck -23.2433 -1.88474 -5.58097
upperneck 34.7774 0.667773 -0.366463
head 16.4308 -0.257247 1.02922
rclavicle 9.14409e-015 3.97569e-015
rhumerus -16.1125 8.37649 -86.576
rradius 46.3903
rwrist -22.0928
rhand -9.88517 -32.9172
rfingers 7.12502
rthumb 16.0942 -62.2689
lclavicle 9.14409e-015 3.97569e-015
lhumerus -24.5954 6.07808 83.6188
lradius 25.5156
lwrist 7.86906
lhand -21.1516 -12.4485
lfingers 7.12502
lthumb 5.22798 17.467
rfemur -15.24 -12.3188 7.5429
rtibia 33.1015
rfoot -18.0858 -8.69935
rtoes -1.88036
lfemur -16.4124 11.3523 -17.3205
ltibia 38.0362
lfoot -13.0883 10.7547
ltoes -7.45518
103
root -5.44683 16.5222 0.694671 95.1566 82.6766 93.703
lowerback 21.6132 0.700746 -1.36762
upperback 8.62048 1.29351 0.195701
thorax -2.71843 0.884092 0.672456
lowerneck -23.4411 -1.72467 -5.49334
upperneck 34.4625 0.889456 -0.497643
head 16.3126 -0.17932 0.996796
rclavicle -2.22639e-014 -1.59028e-014
rhumerus -15.2306 9.73927 -86.2978
rradius 46.9713
rwrist -22.27
rhand -10.6173 -32.6476
rfingers 7.12502
rthumb 15.3892 -62.0549
lclavicle -2.22639e-014 -1.59028e-014
lhumerus -24.8837 5.96354 83.6496
lradius 25.8976
lwrist 8.37835
lhand -21.2599 -12.29
lfingers 7.12502
lthumb 5.12339 17.6281
rfemur -17.1312 -12.3077 7.22536
rtibia 34.3564
rfoot -17.9433 -7.65536
rtoes -1.65458
lfemur -18.0413 12.66 -17.7611
ltibia 39.8424
lfoot -12.9535 10.014
ltoes -7.13512
